Inverse Dynamics Generalized Forces
version=1
nRows=12
nColumns=34
inDegrees=no
endheader 
time	pelvis_tilt_moment	pelvis_list_moment	pelvis_rotation_moment	pelvis_tx_force	pelvis_ty_force	pelvis_tz_force	hip_flexion_l_moment	hip_adduction_l_moment	hip_rotation_l_moment	hip_flexion_r_moment	hip_adduction_r_moment	hip_rotation_r_moment	knee_angle_l_moment	knee_angle_r_moment	ankle_angle_l_moment	ankle_angle_r_moment	subtalar_angle_l_moment	subtalar_angle_r_moment	mtp_angle_l_moment	mtp_angle_r_moment	lumbar_extension_moment	lumbar_bending_moment	lumbar_rotation_moment	arm_flex_l_moment	arm_add_l_moment	arm_rot_l_moment	arm_flex_r_moment	arm_add_r_moment	arm_rot_r_moment	elbow_flex_l_moment	elbow_flex_r_moment	pro_sup_l_moment	pro_sup_r_moment	
          1.15000000	         -0.00000260	         -0.00000024	         -0.00000036	         -0.00000276	          0.00000028	          0.00000027	         29.86634518	          5.19920968	         -3.57205013	        -31.41567422	        -40.57397616	          5.11573354	        -18.87663426	         22.77360678	          4.59511035	        -31.10181376	         -1.16217724	         14.63417627	         -1.37281408	          4.37692967	         12.18890385	         -6.57095452	         -5.17760906	          1.61560158	         -1.59905390	         -0.17832313	         -0.29775030	          0.81313706	          0.07516530	          0.98282922	          0.82400645	         -0.02085218	         -0.00629711	
          1.16000000	         -0.00000255	         -0.00000005	         -0.00000032	         -0.00000270	          0.00000028	          0.00000007	         26.24659011	          8.65127589	         -3.80527424	        -28.50942267	        -37.24024328	          4.68225245	        -17.68578110	         22.25140415	          4.76917532	        -31.66298823	         -0.93714879	         14.73300046	         -1.54552484	          4.44571361	         13.34389709	         -6.34249830	         -5.64322638	          1.54992339	         -1.61061968	         -0.17273059	         -0.23991328	          0.86442713	          0.07364925	          0.96847551	          0.86327304	         -0.02009053	         -0.00756569	
          1.17000000	         -0.00000248	         -0.00000005	         -0.00000030	         -0.00000264	          0.00000027	         -0.00000004	         27.19423174	         11.65069029	         -3.80455639	        -28.09854262	        -31.99677527	          4.41789663	        -18.14018339	         23.24936983	          4.91828008	        -32.90479532	         -0.59227277	         15.10052773	         -1.69196190	          4.60672254	         12.35510541	         -8.68708884	         -5.10810906	          0.95454676	         -1.51285736	         -0.13032497	         -0.05331768	          0.86391999	          0.06773894	          0.80958140	          0.91518694	         -0.01447343	         -0.00798956	
          1.18000000	         -0.00000240	          0.00000002	         -0.00000028	         -0.00000257	          0.00000024	          0.00000002	         26.59509416	         14.21998696	         -3.51405286	        -25.37625954	        -26.20274251	          4.37866532	        -17.89312084	         23.18189083	          4.83012894	        -34.23807727	         -0.08441344	         15.68604975	         -1.76879441	          4.82250489	         10.73769925	        -12.12196556	         -4.94764023	          0.44468099	         -1.28867681	         -0.07293778	          0.10788825	          0.73871887	          0.04499279	          0.68799834	          0.93696487	         -0.00781588	         -0.00916199	
          1.19000000	         -0.00000229	          0.00000012	         -0.00000027	         -0.00000246	          0.00000022	         -0.00000011	         29.06165211	         16.01496902	         -2.99870258	        -24.33564897	        -20.07762043	          4.29145597	        -18.34554858	         24.00784552	          4.51185982	        -35.83606663	          0.53467779	         16.19689691	         -1.73868888	          5.07799942	          7.57150916	        -16.75270362	         -3.77347195	         -0.47321770	         -1.11317951	         -0.00435174	          0.33459147	          0.69523374	          0.04010626	          0.43492690	          0.97691902	          0.00098107	         -0.00818802	
          1.20000000	         -0.00000197	          0.00000024	         -0.00000022	         -0.00000233	          0.00000010	         -0.00000019	         27.60711542	         16.05055748	         -2.08246679	        -19.28555595	        -15.72973258	          4.24057689	        -16.85782695	         22.54669824	          3.90531050	        -36.96338381	          1.12162954	         16.62144562	         -1.58659254	          5.31868005	          4.39370459	        -21.57651055	         -3.30174735	         -1.05400152	         -0.86880768	          0.05981219	          0.50045566	          0.54209845	          0.01859601	          0.28243119	          0.98013845	          0.00833472	         -0.00821796	
          1.21000000	         -0.00000163	          0.00000049	         -0.00000016	         -0.00000195	          0.00000009	         -0.00000034	         27.38634631	         13.91493464	         -1.09284446	        -15.14388641	        -14.90261915	          4.00906351	        -15.20266177	         20.89187199	          3.14688994	        -37.89852561	          1.51828144	         16.59230945	         -1.31824566	          5.54128555	          0.58509866	        -25.48439921	         -2.26017100	         -1.87401382	         -0.74366391	          0.11866254	          0.58922905	          0.51069071	          0.02736079	          0.03588839	          0.97526223	          0.01597113	         -0.00549443	
          1.22000000	         -0.00000127	          0.00000046	         -0.00000013	         -0.00000161	         -0.00000001	         -0.00000062	         22.99020759	         11.98730499	         -0.34135660	         -7.04901669	        -17.08757592	          3.72126876	        -11.51616951	         16.69706039	          2.35595979	        -38.14092483	          1.60923594	         16.32710531	         -0.98709431	          5.70708055	         -2.97481230	        -26.45793020	         -2.07633551	         -2.12791255	         -0.98929568	          0.10452559	          0.50380336	          0.74148590	          0.07693702	         -0.10886536	          0.97726028	          0.01617420	         -0.00065022	
          1.23000000	         -0.00000096	          0.00000029	         -0.00000008	         -0.00000126	          0.00000001	         -0.00000025	         19.87907743	          4.13879038	          0.85186966	         -1.22700505	        -24.09799091	          3.13740610	         -8.41072791	         12.80324366	          1.77781532	        -38.09794621	          1.28598782	         15.49505648	         -0.64991814	          5.81413431	         -5.82845174	        -29.35394891	         -1.80420712	         -2.41053269	         -0.73444541	          0.15245924	          0.46964647	          0.45499746	          0.05268973	         -0.17840171	          0.89131100	          0.02091391	          0.00000306	
          1.24000000	         -0.00000078	          0.00000032	         -0.00000007	         -0.00000085	          0.00000000	         -0.00000041	         16.26470385	          0.22666111	          1.20763577	          4.50035356	        -31.95857676	          2.50418916	         -5.08428306	          8.72161332	          1.42391725	        -37.79331487	          0.78125361	         14.53106904	         -0.37450926	          5.87200768	         -8.11386747	        -27.55649058	         -1.55126584	         -2.36143714	         -1.19260452	          0.08909444	          0.34670451	          0.80719560	          0.12000937	         -0.25642059	          0.91101107	          0.01597581	          0.00513874	
          1.25000000	         -0.00000077	          0.00000029	         -0.00000008	         -0.00000084	          0.00000005	         -0.00000021	         13.83621069	         -5.82127369	          1.56716888	          8.73159039	        -41.90711030	          1.64286352	         -2.89367934	          4.82149747	          1.30888243	        -37.12223764	          0.21742078	         13.22399083	         -0.18863299	          5.84464738	         -9.97427141	        -26.19005801	         -1.49514963	         -2.23184838	         -1.38436702	          0.05466817	          0.19319388	          0.84518422	          0.14452707	         -0.26889731	          0.86381270	          0.01292670	          0.00751435	
          1.26000000	         -0.00000064	          0.00000037	         -0.00000008	         -0.00000079	         -0.00000001	         -0.00000034	         13.41171938	         -9.14286880	          1.51942673	         10.61470126	        -49.47171017	          0.98864288	         -1.89336873	          2.53735078	          1.30049275	        -36.54583984	         -0.14596418	         12.20864895	         -0.09787654	          5.77720503	        -11.33405555	        -24.49884737	         -1.44242683	         -2.01445795	         -1.64400170	          0.00523933	          0.04226259	          0.90307957	          0.16957299	         -0.26015696	          0.82733179	          0.00838825	          0.00939036	
